<mxfile host="app.diagrams.net" modified="2020-12-13T07:56:31.222Z" agent="5.0 (Windows NT 10.0; Win64; x64) AppleWebKit/537.36 (KHTML, like Gecko) Chrome/87.0.4280.88 Safari/537.36 Edg/87.0.664.60" etag="piG52dLB0tBiPHc8KEIG" version="14.0.1" type="github">
  <diagram id="C5RBs43oDa-KdzZeNtuy" name="Page-1">
    <mxGraphModel dx="1037" dy="580" grid="1" gridSize="10" guides="1" tooltips="1" connect="1" arrows="1" fold="1" page="1" pageScale="1" pageWidth="827" pageHeight="1169" math="0" shadow="0">
      <root>
        <mxCell id="WIyWlLk6GJQsqaUBKTNV-0" />
        <mxCell id="WIyWlLk6GJQsqaUBKTNV-1" parent="WIyWlLk6GJQsqaUBKTNV-0" />
        <mxCell id="1edGu6cTSfLPyDaD3A0e-1" value="选择存储方式" style="rounded=1;whiteSpace=wrap;html=1;sketch=0;" vertex="1" parent="WIyWlLk6GJQsqaUBKTNV-1">
          <mxGeometry x="310" y="70" width="120" height="40" as="geometry" />
        </mxCell>
        <mxCell id="1edGu6cTSfLPyDaD3A0e-7" value="" style="strokeWidth=2;html=1;shape=mxgraph.flowchart.annotation_2;align=left;labelPosition=right;pointerEvents=1;rounded=0;sketch=0;rotation=90;" vertex="1" parent="WIyWlLk6GJQsqaUBKTNV-1">
          <mxGeometry x="345" y="12.5" width="50" height="245" as="geometry" />
        </mxCell>
        <mxCell id="1edGu6cTSfLPyDaD3A0e-9" value="顺序存储" style="rounded=1;whiteSpace=wrap;html=1;sketch=0;" vertex="1" parent="WIyWlLk6GJQsqaUBKTNV-1">
          <mxGeometry x="190" y="160" width="120" height="30" as="geometry" />
        </mxCell>
        <mxCell id="1edGu6cTSfLPyDaD3A0e-10" value="链式存储" style="rounded=1;whiteSpace=wrap;html=1;sketch=0;" vertex="1" parent="WIyWlLk6GJQsqaUBKTNV-1">
          <mxGeometry x="430" y="160" width="120" height="30" as="geometry" />
        </mxCell>
        <mxCell id="1edGu6cTSfLPyDaD3A0e-14" value="输入A &lt;br&gt;显示A多项式" style="rounded=1;whiteSpace=wrap;html=1;sketch=0;" vertex="1" parent="WIyWlLk6GJQsqaUBKTNV-1">
          <mxGeometry x="310" y="300" width="120" height="40" as="geometry" />
        </mxCell>
        <mxCell id="1edGu6cTSfLPyDaD3A0e-15" value="" style="endArrow=classic;html=1;exitX=0.5;exitY=1;exitDx=0;exitDy=0;" edge="1" parent="WIyWlLk6GJQsqaUBKTNV-1" source="1edGu6cTSfLPyDaD3A0e-14" target="1edGu6cTSfLPyDaD3A0e-16">
          <mxGeometry width="50" height="50" relative="1" as="geometry">
            <mxPoint x="380" y="300" as="sourcePoint" />
            <mxPoint x="250" y="320" as="targetPoint" />
          </mxGeometry>
        </mxCell>
        <mxCell id="1edGu6cTSfLPyDaD3A0e-16" value="输入B&lt;br&gt;显示B多项式" style="rounded=1;whiteSpace=wrap;html=1;" vertex="1" parent="WIyWlLk6GJQsqaUBKTNV-1">
          <mxGeometry x="310" y="370" width="120" height="40" as="geometry" />
        </mxCell>
        <mxCell id="1edGu6cTSfLPyDaD3A0e-17" value="" style="endArrow=classic;html=1;exitX=0.5;exitY=1;exitDx=0;exitDy=0;" edge="1" parent="WIyWlLk6GJQsqaUBKTNV-1" source="1edGu6cTSfLPyDaD3A0e-16" target="1edGu6cTSfLPyDaD3A0e-18">
          <mxGeometry width="50" height="50" relative="1" as="geometry">
            <mxPoint x="380" y="300" as="sourcePoint" />
            <mxPoint x="250" y="400" as="targetPoint" />
          </mxGeometry>
        </mxCell>
        <mxCell id="1edGu6cTSfLPyDaD3A0e-18" value="计算A+B&lt;br&gt;显示A+B多项式" style="rounded=1;whiteSpace=wrap;html=1;" vertex="1" parent="WIyWlLk6GJQsqaUBKTNV-1">
          <mxGeometry x="310" y="440" width="120" height="40" as="geometry" />
        </mxCell>
        <mxCell id="1edGu6cTSfLPyDaD3A0e-21" value="" style="endArrow=classic;html=1;exitX=0.5;exitY=1;exitDx=0;exitDy=0;" edge="1" parent="WIyWlLk6GJQsqaUBKTNV-1" source="1edGu6cTSfLPyDaD3A0e-9" target="1edGu6cTSfLPyDaD3A0e-22">
          <mxGeometry width="50" height="50" relative="1" as="geometry">
            <mxPoint x="380" y="290" as="sourcePoint" />
            <mxPoint x="250" y="230" as="targetPoint" />
          </mxGeometry>
        </mxCell>
        <mxCell id="1edGu6cTSfLPyDaD3A0e-22" value="建立数组" style="rounded=1;whiteSpace=wrap;html=1;" vertex="1" parent="WIyWlLk6GJQsqaUBKTNV-1">
          <mxGeometry x="190" y="220" width="120" height="30" as="geometry" />
        </mxCell>
        <mxCell id="1edGu6cTSfLPyDaD3A0e-23" value="" style="endArrow=classic;html=1;exitX=0.5;exitY=1;exitDx=0;exitDy=0;" edge="1" parent="WIyWlLk6GJQsqaUBKTNV-1" source="1edGu6cTSfLPyDaD3A0e-10" target="1edGu6cTSfLPyDaD3A0e-24">
          <mxGeometry width="50" height="50" relative="1" as="geometry">
            <mxPoint x="380" y="290" as="sourcePoint" />
            <mxPoint x="490" y="240" as="targetPoint" />
          </mxGeometry>
        </mxCell>
        <mxCell id="1edGu6cTSfLPyDaD3A0e-24" value="建立链表" style="rounded=1;whiteSpace=wrap;html=1;" vertex="1" parent="WIyWlLk6GJQsqaUBKTNV-1">
          <mxGeometry x="430" y="220" width="120" height="30" as="geometry" />
        </mxCell>
        <mxCell id="1edGu6cTSfLPyDaD3A0e-26" value="" style="strokeWidth=2;html=1;shape=mxgraph.flowchart.annotation_2;align=left;labelPosition=right;pointerEvents=1;rounded=0;sketch=0;rotation=-90;" vertex="1" parent="WIyWlLk6GJQsqaUBKTNV-1">
          <mxGeometry x="345" y="155" width="50" height="245" as="geometry" />
        </mxCell>
      </root>
    </mxGraphModel>
  </diagram>
</mxfile>
